HIERARCHY
ROOT joint_Root
{
	OFFSET 0.0 0.0 0.0
	CHANNELS 6 Xposition Yposition Zposition Zrotation Xrotation Yrotation 
	JOINT Hips
	{
		OFFSET 4.5925 91.4895 -427.239
		CHANNELS 6 Xposition Yposition Zposition Zrotation Xrotation Yrotation 
		JOINT Spine
		{
			OFFSET 15.7357 0.0 0.0
			CHANNELS 6 Xposition Yposition Zposition Zrotation Xrotation Yrotation 
			JOINT Chest
			{
				OFFSET 8.98455 -0.406207 0.0
				CHANNELS 6 Xposition Yposition Zposition Zrotation Xrotation Yrotation 
				JOINT Neck
				{
					OFFSET 16.3773 0.0 0.0
					CHANNELS 6 Xposition Yposition Zposition Zrotation Xrotation Yrotation 
					JOINT Head
					{
						OFFSET 6.45672 0.0 0.0
						CHANNELS 6 Xposition Yposition Zposition Zrotation Xrotation Yrotation 
						End Site
						{
							OFFSET 0.0 0.0 0.0
						}
					}
				}
				JOINT Shoulder_L
				{
					OFFSET 12.9942 -0.242716 4.98039
					CHANNELS 6 Xposition Yposition Zposition Zrotation Xrotation Yrotation 
					JOINT UpperArm_L
					{
						OFFSET 5.34809 0.0 0.0
						CHANNELS 6 Xposition Yposition Zposition Zrotation Xrotation Yrotation 
						JOINT LowerArm_L
						{
							OFFSET 24.3286 1.87007e-05 0.0
							CHANNELS 6 Xposition Yposition Zposition Zrotation Xrotation Yrotation 
							JOINT Hand_L
							{
								OFFSET 22.2916 0.0 0.0
								CHANNELS 6 Xposition Yposition Zposition Zrotation Xrotation Yrotation 
								End Site
								{
									OFFSET 0.0 0.0 0.0
								}
							}
						}
					}
				}
				JOINT Shoulder_R
				{
					OFFSET 12.9945 -0.242716 -4.98039
					CHANNELS 6 Xposition Yposition Zposition Zrotation Xrotation Yrotation 
					JOINT UpperArm_R
					{
						OFFSET -5.34813 0.0 0.0
						CHANNELS 6 Xposition Yposition Zposition Zrotation Xrotation Yrotation 
						JOINT LowerArm_R
						{
							OFFSET -24.3289 0.000322201 0.0
							CHANNELS 6 Xposition Yposition Zposition Zrotation Xrotation Yrotation 
							JOINT Hand_R
							{
								OFFSET -22.2915 -0.000108084 0.0
								CHANNELS 6 Xposition Yposition Zposition Zrotation Xrotation Yrotation 
								End Site
								{
									OFFSET 0.0 0.0 0.0
								}
							}
						}
					}
				}
			}
		}
		JOINT UpperLeg_L
		{
			OFFSET -2.19248 -6.46944 0.0
			CHANNELS 6 Xposition Yposition Zposition Zrotation Xrotation Yrotation 
			JOINT LowerLeg_L
			{
				OFFSET 39.0811 0.0 -1.23785e-05
				CHANNELS 6 Xposition Yposition Zposition Zrotation Xrotation Yrotation 
				JOINT Foot_L
				{
					OFFSET 40.9854 0.0 -1.26872e-05
					CHANNELS 6 Xposition Yposition Zposition Zrotation Xrotation Yrotation 
					JOINT Toes_L
					{
						OFFSET 11.7543 0.0 0.0
						CHANNELS 6 Xposition Yposition Zposition Zrotation Xrotation Yrotation 
						End Site
						{
							OFFSET 0.0 0.0 0.0
						}
					}
				}
			}
		}
		JOINT UpperLeg_R
		{
			OFFSET -2.19251 6.46944 0.0
			CHANNELS 6 Xposition Yposition Zposition Zrotation Xrotation Yrotation 
			JOINT LowerLeg_R
			{
				OFFSET -39.0811 -0.00228153 -0.0401928
				CHANNELS 6 Xposition Yposition Zposition Zrotation Xrotation Yrotation 
				JOINT Foot_R
				{
					OFFSET -40.9854 0.0 0.0
					CHANNELS 6 Xposition Yposition Zposition Zrotation Xrotation Yrotation 
					JOINT Toes_R
					{
						OFFSET -11.7543 0.0 0.0
						CHANNELS 6 Xposition Yposition Zposition Zrotation Xrotation Yrotation 
						End Site
						{
							OFFSET 0.0 0.0 0.0
						}
					}
				}
			}
		}
	}
}
MOTION
Frames:	4
Frame Time:	0.0333333
0.000000 0.000000 0.000000 0.000000 0.000000 -0.000000 -62.293800 89.095600 182.661000 94.820600 81.644800 -5.131400 15.735700 0.000005 -0.000001 98.324300 81.102500 -98.825200 8.984550 -0.406207 -0.000000 9.860180 2.551350 -1.221240 16.377300 -0.000001 -0.000001 0.573937 -2.754820 1.975550 6.456720 -0.000001 -0.000000 -4.149020 -2.425090 -0.534726 12.994200 -0.242716 4.980390 -91.100200 3.676320 -73.326500 5.348090 -0.000007 -0.000001 -69.171600 34.392800 -9.170370 24.328600 0.000019 0.000005 5.792510 20.113700 -16.436100 22.291600 -0.000001 0.000005 10.519600 5.176320 3.306650 12.994500 -0.242716 -4.980390 89.018500 8.323210 -83.250300 -5.348130 -0.000001 -0.000004 -48.999900 26.361200 -32.609900 -24.328900 0.000322 -0.000009 -1.364860 -2.232890 -31.425700 -22.291500 -0.000108 -0.000004 19.587700 5.426570 -3.821640 -2.192480 -6.469440 -0.000000 177.597000 -12.490800 -29.976900 39.081100 -0.000007 -0.000012 0.066938 -0.111792 30.911900 40.985400 -0.000006 -0.000013 2.359920 0.851657 -55.839100 11.754300 -0.000000 0.000003 -0.001500 -0.022271 -17.482400 -2.192510 6.469440 -0.000001 175.810000 17.070200 174.383000 -39.081100 -0.002282 -0.040193 0.015970 -0.018044 35.095500 -40.985400 0.000008 0.000006 5.573420 5.654860 -78.033600 -11.754300 -0.000006 -0.000006 -0.430103 -0.534639 -18.439900
0.000000 0.000000 0.000000 0.000000 0.000000 -0.000000 -59.046100 88.447500 182.306000 96.090800 80.735300 -5.987890 15.735700 0.000005 -0.000001 99.071300 81.150000 -99.861300 8.984550 -0.406207 -0.000000 9.740560 2.760310 -1.814170 16.377300 -0.000001 -0.000001 0.968431 -2.777450 2.040560 6.456720 -0.000001 -0.000000 -3.841300 -2.566750 -0.319718 12.994200 -0.242716 4.980390 -91.101100 3.636210 -73.140900 5.348090 -0.000007 -0.000001 -70.019000 33.888200 -7.830490 24.328600 0.000019 0.000005 4.901820 21.258300 -13.308500 22.291600 -0.000001 0.000005 9.942690 5.158490 3.739860 12.994500 -0.242716 -4.980390 88.997800 8.339040 -83.122300 -5.348130 -0.000001 -0.000004 -48.135200 26.631600 -33.158800 -24.328900 0.000322 -0.000009 -1.346700 -2.060230 -33.161300 -22.291500 -0.000108 -0.000004 19.775100 5.428960 -3.903370 -2.192480 -6.469440 -0.000000 177.872000 -11.086500 -30.103600 39.081100 -0.000007 -0.000012 -0.036164 0.050024 35.865200 40.985400 -0.000006 -0.000013 2.110440 1.208010 -56.381600 11.754300 -0.000000 0.000003 -0.001674 -0.024558 -17.575400 -2.192510 6.469440 -0.000001 174.436000 15.394800 175.700000 -39.081100 -0.002282 -0.040193 0.008226 -0.006506 37.207800 -40.985400 0.000008 0.000006 4.699350 4.775550 -78.290700 -11.754300 -0.000006 -0.000006 -1.430930 -1.662490 -20.216100
0.000000 0.000000 0.000000 0.000000 0.000000 -0.000000 -55.749000 87.963200 181.982000 94.607300 80.157100 -3.822050 15.735700 0.000005 -0.000001 99.321400 81.158800 -100.217000 8.984550 -0.406207 -0.000000 9.714450 2.831740 -2.030950 16.377300 -0.000001 -0.000001 1.163300 -2.732160 1.909560 6.456720 -0.000001 -0.000000 -3.179770 -2.684240 -0.016946 12.994200 -0.242716 4.980390 -91.241100 4.041010 -72.911500 5.348090 -0.000007 -0.000001 -69.908000 33.247000 -7.054470 24.328600 0.000019 0.000005 4.272750 22.706400 -10.954400 22.291600 -0.000001 0.000005 9.185540 5.143700 4.093720 12.994500 -0.242716 -4.980390 88.910900 8.827570 -82.938400 -5.348130 -0.000001 -0.000004 -47.753500 26.786800 -32.786100 -24.328900 0.000322 -0.000009 -1.086480 -1.566930 -34.717900 -22.291500 -0.000108 -0.000004 20.030000 5.433160 -4.047670 -2.192480 -6.469440 -0.000000 178.545000 -9.156100 -29.412800 39.081100 -0.000007 -0.000012 -0.147082 0.171577 40.605000 40.985400 -0.000006 -0.000013 1.407430 -1.450070 -60.973600 11.754300 -0.000000 0.000003 -0.000024 -0.000295 -16.589100 -2.192510 6.469440 -0.000001 173.842000 13.510800 175.303000 -39.081100 -0.002282 -0.040193 0.036668 -0.036301 42.614100 -40.985400 0.000008 0.000006 4.157290 2.963520 -76.506900 -11.754300 -0.000006 -0.000006 -0.020673 -0.170988 -23.560300
0.000000 0.000000 0.000000 0.000000 0.000000 -0.000000 -52.608900 87.749500 181.684000 92.566000 79.841400 -0.617563 15.735700 0.000005 -0.000001 99.281300 80.908400 -100.227000 8.984550 -0.406207 -0.000000 10.213500 2.893360 -2.148240 16.377300 -0.000001 -0.000001 1.319180 -2.727430 1.646940 6.456720 -0.000001 -0.000000 -3.047780 -2.901640 0.360089 12.994200 -0.242716 4.980390 -91.270800 4.127420 -72.869700 5.348090 -0.000007 -0.000001 -69.462500 32.238700 -7.330840 24.328600 0.000019 0.000005 3.939320 24.049500 -9.591030 22.291600 -0.000001 0.000005 8.735950 5.128700 4.447900 12.994500 -0.242716 -4.980390 88.879700 9.095780 -82.948100 -5.348130 -0.000001 -0.000004 -49.134000 26.319200 -31.140300 -24.328900 0.000322 -0.000009 -0.980098 -1.344010 -36.074500 -22.291500 -0.000108 -0.000004 20.570300 5.439230 -4.258550 -2.192480 -6.469440 -0.000000 178.923000 -8.825210 -27.253800 39.081100 -0.000007 -0.000012 -0.224983 0.238252 43.359700 40.985400 -0.000006 -0.000013 1.292780 -2.318250 -64.691900 11.754300 -0.000000 0.000003 -0.000063 -0.000694 -16.604400 -2.192510 6.469440 -0.000001 173.582000 12.179100 172.947000 -39.081100 -0.002282 -0.040193 0.096413 -0.075301 51.054500 -40.985400 0.000008 0.000006 4.334360 1.004700 -70.645200 -11.754300 -0.000006 -0.000006 -0.055224 -0.315922 -29.603300
